<svg width="105" height="84" viewBox="0 0 105 84" fill="none" xmlns="http://www.w3.org/2000/svg">
<g clip-path="url(#clip0_98_349)">
<path d="M101.173 59.0802C98.2075 61.1354 94.9954 60.4128 94.4749 60.2865C94.5546 44.8449 94.6343 29.4037 94.714 13.9628C94.8257 13.2832 95.4125 10.1656 98.3022 7.93103C101.187 5.70025 104.319 5.93331 105 6.0009C104.92 21.2813 104.841 36.5617 104.761 51.8421C104.769 52.1728 104.801 56.5655 101.173 59.0802Z" fill="#19458E"/>
<path d="M90.6776 5.97447C89.9651 5.93329 86.6093 5.81642 83.6743 8.3351C80.9437 10.6784 80.4079 13.7322 80.2952 14.5049L80.1082 49.7067C79.9427 50.4631 79.5666 51.1562 79.024 51.7044C78.3532 52.3659 77.4772 52.7743 76.543 52.861L72.3947 52.8189L72.6301 28.5467L61.7826 32.4844C62.4594 32.7905 63.0965 33.1789 63.6798 33.641C64.2024 34.0562 64.5887 34.3692 64.9101 34.9236C65.1895 35.4122 65.3535 35.959 65.3894 36.5218C65.2759 41.9846 65.1625 47.4474 65.049 52.9102L55.6314 52.8191L55.7773 34.7557C51.2551 36.6649 46.606 38.2529 41.8642 39.5082C35.7894 41.1154 29.5842 42.171 23.3228 42.6624C23.7652 42.8595 24.1895 43.0956 24.5907 43.3681C25.2903 43.8441 26.2136 44.4724 26.6586 45.6064C26.7849 45.9297 26.8645 46.2696 26.8949 46.6158C26.8439 48.6672 26.793 50.7187 26.742 52.7701L18.4441 52.8055C18.4118 50.8591 18.3793 48.9127 18.3468 46.9663C15.8105 49.6666 12.8755 51.9553 9.64602 53.7514C7.97881 54.6761 6.24042 55.4637 4.44774 56.1066C5.44041 56.4576 6.35364 57.0049 7.13391 57.7164C7.59606 58.1408 8.13688 58.647 8.53411 59.4993C8.88271 60.2818 9.03543 61.1387 8.97887 61.9946C8.91417 63.8981 8.95313 68.3491 8.99131 74.4156C8.86598 75.8787 8.36003 76.8286 8.02454 77.3378C6.38501 79.8251 3.19741 80.3114 1.77905 80.5278C1.19014 80.6176 0.595584 80.6644 0 80.668C0.380612 80.954 7.10487 85.8668 12.7038 83.2194C14.3142 82.458 15.4995 81.1721 15.6006 81.0616C17.9443 78.4986 18.1993 75.405 18.2392 74.36C18.3122 70.355 18.3852 66.3501 18.4581 62.3452L79.6889 62.3689C81.707 62.3511 85.6254 62.0064 88.1908 59.2003C90.4805 56.6956 90.627 53.3958 90.6788 51.7089C90.9004 44.4886 91.0156 27.93 90.6776 5.97447ZM37.2191 52.6509L34.134 52.6065C34.2098 48.9416 34.2857 45.2766 34.3616 41.6116C35.1812 41.7245 35.9422 42.103 36.5298 42.6902C37.1175 43.2774 37.4999 44.0414 37.6194 44.867C37.4859 47.4615 37.3524 50.0562 37.2191 52.6509ZM48.8365 52.756L45.4451 52.6999L45.6952 38.765C46.3251 38.8999 46.9188 39.1699 47.4361 39.5566C48.9105 40.6674 49.1952 42.3592 49.2534 42.7744C49.1145 46.1016 48.9756 49.4288 48.8365 52.756Z" fill="#19458E"/>
<path d="M73.6442 65.4233L73.6025 72.6362H77.47C79.4007 72.4415 80.8406 70.7585 80.764 68.8826C80.6923 67.1241 79.3055 65.628 77.5012 65.4339L73.6442 65.4233Z" fill="#FBB03B"/>
<path d="M81.4275 65.4233L81.3858 72.6362H85.2529C87.1836 72.4415 88.6235 70.7585 88.5469 68.8826C88.4751 67.1241 87.0884 65.628 85.2841 65.4339L81.4275 65.4233Z" fill="#FBB03B"/>
<path d="M69.7086 72.0219H67.0353L65.8913 68.9951H65.1324V72.0219H62.7236V64.1069H66.8226C67.7271 64.1069 68.4285 64.3215 68.9267 64.7506C69.4288 65.1758 69.6798 65.7382 69.6798 66.4379C69.6798 66.8941 69.5878 67.298 69.4039 67.6498C69.2199 67.9977 68.8481 68.305 68.2886 68.5718L69.7086 72.0219ZM65.1324 67.3019H66.1615C66.4643 67.3019 66.7076 67.2381 66.8916 67.1105C67.0756 66.983 67.1675 66.7955 67.1675 66.5481C67.1675 66.0417 66.859 65.7885 66.242 65.7885H65.1324V67.3019Z" fill="#19458E"/>
<path d="M54.7614 69.7316L56.9977 69.3258C57.1855 69.9636 57.6684 70.2825 58.4465 70.2825C59.052 70.2825 59.3548 70.1201 59.3548 69.7954C59.3548 69.6253 59.2839 69.4939 59.1421 69.4011C59.0041 69.3045 58.755 69.2194 58.3947 69.146C57.0188 68.8793 56.1354 68.5314 55.7445 68.1023C55.3536 67.6732 55.1581 67.1687 55.1581 66.5889C55.1581 65.8428 55.4379 65.2224 55.9974 64.7276C56.5608 64.2328 57.3695 63.9854 58.4235 63.9854C60.0217 63.9854 61.0775 64.6328 61.5911 65.9278L59.5962 66.5367C59.3893 66.0071 58.9696 65.7423 58.3372 65.7423C57.8122 65.7423 57.5496 65.9066 57.5496 66.2352C57.5496 66.3821 57.609 66.4961 57.7279 66.5773C57.8467 66.6585 58.0766 66.7358 58.4177 66.8092C59.3567 67.0102 60.0236 67.188 60.4183 67.3427C60.8131 67.4973 61.1427 67.7621 61.4072 68.1371C61.6716 68.5082 61.8038 68.9469 61.8038 69.4533C61.8038 70.2535 61.4819 70.9029 60.838 71.4016C60.1941 71.8964 59.349 72.1438 58.3027 72.1438C56.3903 72.1438 55.2098 71.3398 54.7614 69.7316Z" fill="#19458E"/>
<path d="M54.2785 64.1069V69.3488C54.2785 70.3422 53.9853 71.0574 53.3989 71.4942C52.8164 71.9271 52.0556 72.1436 51.1166 72.1436C50.1278 72.1436 49.3325 71.9349 48.7308 71.5174C48.1329 71.0999 47.834 70.4195 47.834 69.4763V64.1069H50.283V69.1922C50.283 69.571 50.3616 69.8474 50.5187 70.0214C50.6797 70.1953 50.9346 70.2823 51.2833 70.2823C51.5746 70.2823 51.8122 70.2205 51.9962 70.0968C52.184 69.9692 52.2951 69.8262 52.3296 69.6677C52.368 69.5092 52.3871 69.1999 52.3871 68.7399V64.1069H54.2785Z" fill="#19458E"/>
<path d="M47.4603 64.1069L45.0055 68.6703V72.0219H42.6657V68.6703L40.0269 64.1069H42.6657L44.0397 66.7105L45.3562 64.1069H47.4603Z" fill="#19458E"/>
<path d="M37.1583 70.0794V72.0219H31.6566V64.1069H34.0653V70.0794H37.1583Z" fill="#19458E"/>
<path d="M28.4774 72.0219L28.0347 70.4621H25.9306L25.4592 72.0219H23.5046L25.9306 64.1069H28.4774L30.9322 72.0219H28.4774ZM26.3388 68.7341H27.615L26.9769 66.4379L26.3388 68.7341Z" fill="#19458E"/>
<path d="M78.912 80.4206C79.0355 80.4206 79.1443 80.4111 79.2384 80.3921C79.3351 80.3704 79.4157 80.3312 79.4801 80.2743C79.5446 80.2174 79.593 80.1401 79.6252 80.0426C79.6574 79.945 79.6736 79.819 79.6736 79.6646V74.8809H80.3022V79.6931C80.3022 79.8963 80.2834 80.0724 80.2458 80.2214C80.2082 80.3704 80.1558 80.4964 80.0886 80.5994C80.0241 80.7024 79.9462 80.7877 79.8549 80.8555C79.7662 80.9205 79.6682 80.9706 79.5607 81.0058C79.456 81.0411 79.3445 81.0655 79.2263 81.079C79.1108 81.0925 78.9926 81.0993 78.8717 81.0993H78.2954C78.2014 81.0993 78.1316 81.0641 78.0859 80.9936C78.0375 80.9232 78.0134 80.8446 78.0134 80.7579C78.0134 80.6712 78.0375 80.594 78.0859 80.5262C78.1316 80.4558 78.2014 80.4206 78.2954 80.4206H78.912Z" fill="#19458E"/>
<path d="M77.546 79.3842C77.546 79.5657 77.554 79.7215 77.5701 79.8516C77.5863 79.9816 77.6198 80.0887 77.6709 80.1726C77.7246 80.2566 77.8012 80.319 77.9006 80.3596C78 80.4003 78.1316 80.4206 78.2955 80.4206V81.0993H78.2068C77.9462 81.0993 77.738 81.0573 77.5822 80.9733C77.4264 80.8866 77.3096 80.762 77.2317 80.5994H77.2155C77.143 80.6942 77.0611 80.7742 76.9697 80.8392C76.8811 80.9015 76.7884 80.953 76.6917 80.9936C76.595 81.0316 76.4969 81.0587 76.3975 81.0749C76.3008 81.0912 76.2068 81.0993 76.1154 81.0993H75.5392C75.4452 81.0993 75.3753 81.0641 75.3297 80.9936C75.2813 80.9232 75.2571 80.8446 75.2571 80.7579C75.2571 80.6712 75.2813 80.594 75.3297 80.5262C75.3753 80.4558 75.4452 80.4206 75.5392 80.4206H76.1557C76.2337 80.4206 76.3169 80.4084 76.4056 80.384C76.4969 80.3596 76.5802 80.3176 76.6554 80.258C76.7306 80.1984 76.7924 80.1212 76.8408 80.0263C76.8918 79.9288 76.9173 79.8082 76.9173 79.6646V74.8809H77.546V79.3842Z" fill="#19458E"/>
<path d="M74.7897 79.3843C74.7897 79.5659 74.7977 79.7217 74.8139 79.8517C74.83 79.9818 74.8635 80.0888 74.9146 80.1728C74.9683 80.2568 75.0449 80.3191 75.1443 80.3598C75.2437 80.4004 75.3753 80.4207 75.5392 80.4207V81.0995H75.4505C75.1819 81.0995 74.967 81.0575 74.8058 80.9735C74.6446 80.8868 74.5237 80.7621 74.4431 80.5996H74.427C74.3572 80.6944 74.2779 80.7743 74.1893 80.8394C74.1033 80.9017 74.0133 80.9532 73.9193 80.9938C73.8253 81.0317 73.7299 81.0588 73.6332 81.0751C73.5392 81.0914 73.4478 81.0995 73.3592 81.0995H72.7829C72.6889 81.0995 72.6191 81.0643 72.5734 80.9938C72.525 80.9234 72.5009 80.8448 72.5009 80.7581C72.5009 80.6714 72.525 80.5941 72.5734 80.5264C72.6191 80.456 72.6889 80.4207 72.7829 80.4207H73.3995C73.4774 80.4207 73.5606 80.4085 73.6493 80.3842C73.7406 80.3598 73.8239 80.3178 73.8991 80.2582C73.9743 80.1985 74.0361 80.1213 74.0845 80.0265C74.1355 79.9289 74.1611 79.8084 74.1611 79.6648V77.8602H74.7897V79.3843ZM74.1691 76.8929H73.4236V76.1572H74.1691V76.8929ZM75.4666 76.8929H74.7212V76.1572H75.4666V76.8929Z" fill="#19458E"/>
<path d="M72.7789 80.4207V81.0994H72.5291C72.1664 81.0994 71.8239 81.0493 71.5015 80.9491C71.1818 80.8488 70.8756 80.7052 70.5828 80.5182C70.3061 80.6916 69.9851 80.8325 69.6197 80.9409C69.2544 81.0466 68.838 81.0994 68.3705 81.0994H67.9555C67.8614 81.0994 67.7916 81.0642 67.7459 80.9938C67.6976 80.9233 67.6734 80.8447 67.6734 80.758C67.6734 80.6713 67.6976 80.5941 67.7459 80.5264C67.7916 80.4559 67.8614 80.4207 67.9555 80.4207H68.4108C68.7547 80.4207 69.0596 80.3922 69.3255 80.3353C69.5942 80.2784 69.8346 80.2026 70.0468 80.1077C69.7621 79.8693 69.5028 79.6092 69.2691 79.3274C69.0381 79.0456 68.8299 78.7529 68.6445 78.4495V77.7463C68.7654 77.7274 68.9024 77.7057 69.0556 77.6813C69.2087 77.6569 69.3699 77.6353 69.5391 77.6163C69.7084 77.5946 69.8816 77.577 70.0589 77.5634C70.2389 77.5472 70.4135 77.5391 70.5828 77.5391C70.6875 77.5391 70.7963 77.5431 70.9092 77.5513C71.022 77.5567 71.1321 77.5702 71.2396 77.5919C71.3471 77.6136 71.4478 77.6434 71.5418 77.6813C71.6385 77.7192 71.7232 77.7694 71.7957 77.8317C71.8682 77.8913 71.926 77.9658 71.969 78.0552C72.0119 78.1419 72.0334 78.2449 72.0334 78.3641C72.0334 78.4671 72.016 78.5877 71.9811 78.7259C71.9488 78.8613 71.8964 79.0049 71.8239 79.1567C71.7541 79.3084 71.6641 79.4629 71.5539 79.62C71.4438 79.7772 71.3121 79.9289 71.159 80.0752C71.6533 80.3055 72.1933 80.4207 72.7789 80.4207ZM71.4008 78.5552C71.4008 78.417 71.3189 78.3194 71.155 78.2625C70.9938 78.2056 70.7749 78.1772 70.4982 78.1772C70.294 78.1772 70.0858 78.188 69.8736 78.2097C69.6613 78.2286 69.4572 78.249 69.2611 78.2706V78.3154C69.4464 78.6026 69.6506 78.8668 69.8736 79.1079C70.0992 79.3463 70.3531 79.5631 70.6352 79.7582C70.7749 79.6471 70.8931 79.532 70.9898 79.4127C71.0892 79.2935 71.1684 79.1797 71.2275 79.0713C71.2893 78.9602 71.3336 78.86 71.3605 78.7706C71.3874 78.6811 71.4008 78.6093 71.4008 78.5552Z" fill="#19458E"/>
<path d="M67.2059 79.3842C67.2059 79.5657 67.214 79.7215 67.2301 79.8516C67.2462 79.9816 67.2798 80.0887 67.3309 80.1726C67.3846 80.2566 67.4611 80.319 67.5605 80.3596C67.6599 80.4003 67.7916 80.4206 67.9554 80.4206V81.0993H67.8668C67.6062 81.0993 67.398 81.0573 67.2422 80.9733C67.0864 80.8866 66.9695 80.762 66.8916 80.5994H66.8755C66.803 80.6942 66.721 80.7742 66.6297 80.8392C66.541 80.9015 66.4484 80.953 66.3517 80.9936C66.2549 81.0316 66.1569 81.0587 66.0575 81.0749C65.9608 81.0912 65.8668 81.0993 65.7754 81.0993H65.1992C65.1052 81.0993 65.0353 81.0641 64.9896 80.9936C64.9413 80.9232 64.9171 80.8446 64.9171 80.7579C64.9171 80.6712 64.9413 80.594 64.9896 80.5262C65.0353 80.4558 65.1052 80.4206 65.1992 80.4206H65.8157C65.8936 80.4206 65.9769 80.4084 66.0656 80.384C66.1569 80.3596 66.2402 80.3176 66.3154 80.258C66.3906 80.1984 66.4524 80.1212 66.5008 80.0263C66.5518 79.9288 66.5773 79.8082 66.5773 79.6646V74.8809H67.2059V79.3842Z" fill="#19458E"/>
<path d="M64.4497 79.384C64.4497 79.5655 64.4578 79.7213 64.4739 79.8514C64.49 79.9815 64.5236 80.0885 64.5746 80.1725C64.6284 80.2565 64.7049 80.3188 64.8043 80.3594C64.9037 80.4001 65.0353 80.4204 65.1992 80.4204V81.0992H65.1106C64.8419 81.0992 64.627 81.0572 64.4658 80.9732C64.3046 80.8865 64.1838 80.7618 64.1032 80.5992H64.087C64.0172 80.6941 63.9379 80.774 63.8493 80.839C63.7633 80.9014 63.6733 80.9528 63.5793 80.9935C63.4853 81.0314 63.3899 81.0585 63.2932 81.0748C63.1992 81.091 63.1078 81.0992 63.0192 81.0992H62.443C62.3489 81.0992 62.2791 81.0639 62.2334 80.9935C62.1851 80.923 62.1609 80.8445 62.1609 80.7577C62.1609 80.671 62.1851 80.5938 62.2334 80.5261C62.2791 80.4556 62.3489 80.4204 62.443 80.4204H63.0595C63.1374 80.4204 63.2207 80.4082 63.3093 80.3838C63.4007 80.3594 63.4839 80.3174 63.5592 80.2578C63.6344 80.1982 63.6962 80.121 63.7445 80.0262C63.7956 79.9286 63.8211 79.808 63.8211 79.6644V77.8599H64.4497V79.384ZM63.4987 82.4485H62.7532V81.7129H63.4987V82.4485ZM64.7963 82.4485H64.0508V81.7129H64.7963V82.4485Z" fill="#19458E"/>
<path d="M62.4389 80.4205V81.0992H62.3503C62.1327 81.0992 61.954 81.0599 61.8143 80.9814C61.6746 80.9028 61.5605 80.7903 61.4718 80.644H61.4557C61.3536 80.7903 61.23 80.9041 61.085 80.9854C60.9399 81.064 60.7612 81.1033 60.549 81.1033C60.4174 81.1033 60.2831 81.0897 60.1461 81.0626C60.0117 81.0383 59.8801 81.0112 59.7512 80.9814C59.6222 80.9488 59.4986 80.9204 59.3804 80.896C59.2649 80.8689 59.1588 80.8554 59.0621 80.8554C58.8526 80.8554 58.7021 80.9218 58.6108 81.0545C58.5221 81.19 58.4778 81.381 58.4778 81.6276C58.4778 81.7306 58.4832 81.8444 58.4939 81.969C58.5074 82.0963 58.5248 82.2264 58.5463 82.3592C58.5705 82.4947 58.5973 82.6274 58.6269 82.7575C58.6591 82.8903 58.6941 83.0135 58.7317 83.1273H58.0628C57.9956 82.8483 57.9419 82.58 57.9016 82.3226C57.864 82.0679 57.8452 81.8471 57.8452 81.6601C57.8452 81.465 57.8693 81.2848 57.9177 81.1195C57.966 80.957 58.0345 80.8147 58.1232 80.6928C58.2118 80.5682 58.318 80.4679 58.4415 80.392C58.5678 80.3135 58.7088 80.262 58.8646 80.2376C58.9264 79.9314 58.9976 79.6686 59.0782 79.4491C59.1615 79.2296 59.2488 79.0454 59.3401 78.8963C59.4342 78.7446 59.5295 78.624 59.6262 78.5346C59.7256 78.4452 59.821 78.3761 59.9123 78.3273C60.0037 78.2786 60.0883 78.2474 60.1662 78.2339C60.2468 78.2176 60.3153 78.2095 60.3717 78.2095C60.5544 78.2095 60.7196 78.2542 60.8674 78.3436C61.0151 78.4303 61.1441 78.5441 61.2542 78.685C61.367 78.8232 61.4584 78.979 61.5282 79.1524C61.5981 79.3258 61.6478 79.4979 61.6773 79.6686C61.6934 79.7715 61.7109 79.8691 61.7297 79.9612C61.7512 80.0506 61.7875 80.1306 61.8385 80.201C61.8895 80.2687 61.9607 80.3229 62.0521 80.3636C62.1461 80.4015 62.275 80.4205 62.4389 80.4205ZM60.4725 80.4245C60.5611 80.4245 60.6404 80.4164 60.7102 80.4002C60.7827 80.3839 60.8445 80.3568 60.8956 80.3189C60.9493 80.2809 60.9896 80.2295 61.0165 80.1644C61.046 80.0994 61.0608 80.0195 61.0608 79.9246C61.0608 79.8244 61.0406 79.7146 61.0003 79.5954C60.96 79.4735 60.905 79.3597 60.8351 79.254C60.768 79.1483 60.6874 79.0603 60.5933 78.9898C60.502 78.9194 60.404 78.8842 60.2992 78.8842C60.0977 78.8842 59.9231 78.9952 59.7753 79.2174C59.6303 79.4396 59.5027 79.7851 59.3925 80.2538C59.4812 80.2674 59.5712 80.2836 59.6625 80.3026C59.7538 80.3216 59.8452 80.3405 59.9365 80.3595C60.0279 80.3785 60.1179 80.3947 60.2065 80.4083C60.2978 80.4191 60.3865 80.4245 60.4725 80.4245Z" fill="#19458E"/>
<path d="M51.2165 82.1114C51.5066 82.2306 51.7672 82.3133 51.9982 82.3594C52.232 82.4081 52.459 82.4325 52.6792 82.4325C52.9479 82.4325 53.1641 82.3878 53.328 82.2984C53.4946 82.209 53.6235 82.0938 53.7148 81.9529C53.8089 81.812 53.8733 81.6535 53.9083 81.4774C53.9432 81.3013 53.9633 81.1251 53.9687 80.949C53.7457 81.0493 53.5147 81.0994 53.2756 81.0994C53.0983 81.0994 52.9264 81.0723 52.7598 81.0181C52.596 80.9612 52.4509 80.8799 52.3246 80.7743C52.1984 80.6659 52.0963 80.5345 52.0184 80.38C51.9432 80.2256 51.9056 80.0481 51.9056 79.8476C51.9056 79.6742 51.9378 79.4926 52.0023 79.303C52.0667 79.1106 52.1554 78.9345 52.2682 78.7746C52.3837 78.612 52.5194 78.4792 52.6752 78.3763C52.831 78.2706 53.0003 78.2178 53.1829 78.2178C53.3764 78.2178 53.5523 78.2747 53.7108 78.3885C53.872 78.5023 54.0251 78.6743 54.1702 78.9046C54.3153 79.135 54.4241 79.4113 54.4966 79.7338C54.5691 80.0535 54.6054 80.3922 54.6054 80.7499C54.6054 81.0642 54.5705 81.3636 54.5006 81.6481C54.4308 81.9353 54.3193 82.1886 54.1662 82.4081C54.013 82.6276 53.8142 82.8024 53.5698 82.9324C53.3253 83.0625 53.0285 83.1275 52.6792 83.1275C52.4348 83.1275 52.197 83.1018 51.966 83.0503C51.735 82.9988 51.4851 82.9107 51.2165 82.7861V82.1114ZM53.9607 80.2906C53.958 80.2229 53.9459 80.1429 53.9244 80.0508C53.9029 79.956 53.8733 79.8584 53.8357 79.7582C53.8008 79.6552 53.7592 79.5549 53.7108 79.4574C53.6625 79.3571 53.6074 79.2677 53.5456 79.1892C53.4865 79.1079 53.4234 79.0428 53.3562 78.9941C53.2891 78.9453 53.2192 78.9209 53.1467 78.9209C53.0688 78.9209 52.9922 78.9466 52.917 78.9981C52.8445 79.0496 52.7786 79.116 52.7195 79.1973C52.6604 79.2786 52.6121 79.3707 52.5745 79.4737C52.5395 79.5766 52.5221 79.6796 52.5221 79.7825C52.5221 79.8828 52.5449 79.9736 52.5906 80.0549C52.6363 80.1334 52.6967 80.1998 52.7719 80.254C52.8498 80.3082 52.9385 80.3502 53.0379 80.38C53.1373 80.4098 53.2407 80.4247 53.3482 80.4247C53.4529 80.4247 53.5577 80.4166 53.6625 80.4003C53.7672 80.3814 53.8666 80.3448 53.9607 80.2906Z" fill="#19458E"/>
<path d="M49.8344 74.8809H50.463V81.0424H49.8344V74.8809Z" fill="#19458E"/>
<path d="M47.0055 80.4206C47.1291 80.4206 47.2379 80.4111 47.3319 80.3921C47.4286 80.3704 47.5092 80.3312 47.5737 80.2743C47.6382 80.2174 47.6865 80.1401 47.7188 80.0426C47.751 79.945 47.7671 79.819 47.7671 79.6646V74.8809H48.3958V79.6931C48.3958 79.8963 48.3769 80.0724 48.3393 80.2214C48.3017 80.3704 48.2493 80.4964 48.1822 80.5994C48.1177 80.7024 48.0398 80.7877 47.9485 80.8555C47.8598 80.9205 47.7618 80.9706 47.6543 81.0058C47.5495 81.0411 47.438 81.0655 47.3198 81.079C47.2043 81.0925 47.0861 81.0993 46.9652 81.0993H46.389C46.295 81.0993 46.2251 81.0641 46.1795 80.9936C46.1311 80.9232 46.1069 80.8446 46.1069 80.7579C46.1069 80.6712 46.1311 80.594 46.1795 80.5262C46.2251 80.4558 46.295 80.4206 46.389 80.4206H47.0055Z" fill="#19458E"/>
<path d="M45.6395 79.3843C45.6395 79.5659 45.6476 79.7217 45.6637 79.8517C45.6798 79.9818 45.7134 80.0888 45.7644 80.1728C45.8182 80.2568 45.8947 80.3191 45.9941 80.3598C46.0935 80.4004 46.2252 80.4207 46.389 80.4207V81.0995H46.3004C46.0317 81.0995 45.8168 81.0575 45.6556 80.9735C45.4945 80.8868 45.3736 80.7621 45.293 80.5996H45.2769C45.207 80.6944 45.1278 80.7743 45.0391 80.8394C44.9531 80.9017 44.8632 80.9532 44.7691 80.9938C44.6751 81.0317 44.5797 81.0588 44.483 81.0751C44.389 81.0914 44.2977 81.0995 44.209 81.0995H43.6328C43.5388 81.0995 43.4689 81.0643 43.4232 80.9938C43.3749 80.9234 43.3507 80.8448 43.3507 80.7581C43.3507 80.6714 43.3749 80.5941 43.4232 80.5264C43.4689 80.456 43.5388 80.4207 43.6328 80.4207H44.2493C44.3272 80.4207 44.4105 80.4085 44.4991 80.3842C44.5905 80.3598 44.6738 80.3178 44.749 80.2582C44.8242 80.1985 44.886 80.1213 44.9343 80.0265C44.9854 79.9289 45.0109 79.8084 45.0109 79.6648V77.8602H45.6395V79.3843ZM45.019 76.8929H44.2735V76.1572H45.019V76.8929ZM46.3165 76.8929H45.571V76.1572H46.3165V76.8929Z" fill="#19458E"/>
<path d="M39.8288 80.3556C40.0894 80.3854 40.3312 80.4084 40.5541 80.4247C40.7771 80.4382 40.9651 80.445 41.1183 80.445C41.5105 80.445 41.7912 80.3976 41.9605 80.3027C42.1324 80.2052 42.2184 80.0507 42.2184 79.8394C42.2184 79.7147 42.1996 79.5535 42.1619 79.3557C42.1243 79.1579 42.0719 78.9398 42.0048 78.7014C41.9403 78.4629 41.8651 78.2123 41.7791 77.9495C41.6932 77.6839 41.6018 77.4224 41.5051 77.165H42.174C42.3245 77.6175 42.4507 78.0375 42.5528 78.425C42.6576 78.8097 42.7489 79.1755 42.8268 79.5224C42.8456 79.6091 42.8712 79.7053 42.9034 79.8109C42.9356 79.9139 42.9813 80.0114 43.0404 80.1036C43.1022 80.193 43.1801 80.2689 43.2741 80.3312C43.3681 80.3908 43.4877 80.4206 43.6327 80.4206V81.0993H43.5441C43.4554 81.0993 43.3681 81.0885 43.2822 81.0668C43.1989 81.0451 43.1196 81.0113 43.0444 80.9652C42.9692 80.9164 42.9007 80.8541 42.8389 80.7782C42.7798 80.6997 42.7301 80.6048 42.6898 80.4937H42.6697C42.5998 80.6157 42.5098 80.7173 42.3997 80.7986C42.2922 80.8799 42.1713 80.9462 42.037 80.9977C41.9027 81.0465 41.7563 81.0804 41.5978 81.0993C41.442 81.121 41.2808 81.1318 41.1142 81.1318C40.9584 81.1318 40.7771 81.1237 40.5702 81.1075C40.3634 81.0912 40.1592 81.0695 39.9577 81.0424L39.8288 80.3556Z" fill="#19458E"/>
<path d="M36.049 82.2741C36.3821 82.3798 36.6682 82.4326 36.9073 82.4326C37.1357 82.4326 37.3277 82.3906 37.4836 82.3066C37.6394 82.2253 37.7629 82.1115 37.8543 81.9652C37.9483 81.8189 38.0155 81.6468 38.0558 81.449C38.0961 81.2512 38.1162 81.0358 38.1162 80.8028C38.1162 80.5996 38.1028 80.4018 38.0759 80.2094C38.0517 80.017 38.0181 79.8287 37.9752 79.6445C37.9349 79.4602 37.8865 79.28 37.8301 79.1039C37.7764 78.9251 37.72 78.7503 37.6609 78.5796H38.3096C38.3795 78.7557 38.4413 78.94 38.495 79.1323C38.5487 79.3247 38.5944 79.5185 38.632 79.7135C38.6696 79.9059 38.6978 80.0969 38.7166 80.2866C38.7381 80.4736 38.7488 80.6511 38.7488 80.819C38.7488 81.193 38.7032 81.5235 38.6118 81.8108C38.5205 82.098 38.3929 82.3391 38.229 82.5342C38.0678 82.7293 37.8744 82.877 37.6488 82.9772C37.4258 83.0775 37.1827 83.1276 36.9194 83.1276C36.7824 83.1276 36.6414 83.1127 36.4963 83.0829C36.3512 83.0531 36.2021 83.007 36.049 82.9447V82.2741Z" fill="#19458E"/>
<path d="M33.2162 80.4204C33.3397 80.4204 33.4485 80.4109 33.5426 80.392C33.6393 80.3703 33.7199 80.331 33.7843 80.2741C33.8488 80.2172 33.8972 80.14 33.9294 80.0424C33.9616 79.9449 33.9778 79.8189 33.9778 79.6644V77.8599H34.6064V79.6929C34.6064 79.8961 34.5876 80.0722 34.55 80.2213C34.5124 80.3703 34.46 80.4963 34.3928 80.5992C34.3283 80.7022 34.2504 80.7876 34.1591 80.8553C34.0704 80.9203 33.9724 80.9704 33.8649 81.0057C33.7602 81.0409 33.6487 81.0653 33.5305 81.0788C33.415 81.0924 33.2968 81.0992 33.1759 81.0992H32.5996C32.5056 81.0992 32.4358 81.0639 32.3901 80.9935C32.3417 80.923 32.3176 80.8445 32.3176 80.7577C32.3176 80.671 32.3417 80.5938 32.3901 80.5261C32.4358 80.4556 32.5056 80.4204 32.5996 80.4204H33.2162ZM33.6554 82.4485H32.9099V81.7129H33.6554V82.4485ZM34.9529 82.4485H34.2075V81.7129H34.9529V82.4485Z" fill="#19458E"/>
<path d="M31.8461 77.8599V79.384C31.8461 79.5655 31.8542 79.7213 31.8703 79.8514C31.8864 79.9815 31.92 80.0885 31.9711 80.1725C32.0248 80.2565 32.1 80.3188 32.1967 80.3594C32.2961 80.4001 32.4291 80.4204 32.5956 80.4204V81.0992H32.507C32.2464 81.0992 32.0409 81.0599 31.8905 80.9813C31.74 80.9027 31.6218 80.7767 31.5359 80.6033H31.5197C31.4015 80.7307 31.2565 80.8309 31.0845 80.9041C30.9126 80.9745 30.7205 81.026 30.5083 81.0585C30.2988 81.0937 30.0731 81.1141 29.8313 81.1195C29.5896 81.1276 29.3397 81.1317 29.0818 81.1317C28.7165 81.1317 28.382 81.129 28.0785 81.1235C27.7776 81.1181 27.5049 81.1005 27.2604 81.0707C27.0187 81.0436 26.8064 81.0003 26.6238 80.9406C26.4411 80.881 26.2853 80.7957 26.1563 80.6846C25.9844 80.5356 25.8662 80.3581 25.8017 80.1522C25.7373 79.9462 25.705 79.724 25.705 79.4856C25.705 79.3203 25.7171 79.1618 25.7413 79.0101C25.7655 78.8583 25.7923 78.7134 25.8219 78.5752H26.4424C26.4183 78.6917 26.3941 78.8191 26.3699 78.9572C26.3484 79.0927 26.3377 79.2336 26.3377 79.3799C26.3377 79.5425 26.3578 79.6915 26.3981 79.827C26.4411 79.9598 26.5257 80.0736 26.652 80.1684C26.7299 80.2253 26.8306 80.2727 26.9542 80.3107C27.0778 80.3459 27.2376 80.3743 27.4337 80.396C27.6298 80.415 27.8676 80.4285 28.147 80.4367C28.429 80.4421 28.7675 80.4448 29.1624 80.4448C29.5063 80.4448 29.8072 80.438 30.0651 80.4245C30.3229 80.4109 30.5365 80.3771 30.7058 80.3229C30.8777 80.266 31.0053 80.182 31.0886 80.0709C31.1745 79.9571 31.2175 79.8026 31.2175 79.6075V77.8599H31.8461ZM29.1826 82.4485H28.4371V81.7129H29.1826V82.4485Z" fill="#19458E"/>
<path d="M51.407 23.1326C48.2357 24.6043 45.3186 26.5789 42.7666 28.9815C40.3067 31.298 38.2466 34.0116 36.6707 37.0108C36.467 35.2124 36.6293 33.3909 37.1477 31.6579C38.4645 27.3135 41.7873 24.6318 45.364 21.7452C47.2663 20.2135 49.2871 18.8379 51.407 17.6313V23.1326Z" fill="#FBB03B"/>
<path d="M51.407 15.7728C48.2357 17.2446 45.3186 19.2192 42.7666 21.6217C40.3067 23.9382 38.2466 26.6518 36.6706 29.6511C36.4669 27.8525 36.6292 26.031 37.1476 24.298C38.4644 19.9535 41.7873 17.2718 45.364 14.3852C47.2663 12.8536 49.2871 11.4779 51.407 10.2715V15.7728Z" fill="#FBB03B"/>
<path d="M20.3464 15.7726C23.5176 17.2444 26.4347 19.219 28.9867 21.6215C31.4465 23.938 33.5067 26.6516 35.0826 29.6508C35.2862 27.8524 35.1238 26.031 34.6055 24.298C33.2887 19.9535 29.9659 17.2718 26.3892 14.3852C24.4869 12.8536 22.4661 11.478 20.3463 10.2715L20.3464 15.7726Z" fill="#FBB03B"/>
<path d="M20.3464 23.1326C23.5177 24.6043 26.4347 26.5789 28.9867 28.9815C31.4465 31.298 33.5067 34.0116 35.0826 37.0108C35.2862 35.2124 35.1238 33.3909 34.6055 31.6579C33.2887 27.3135 29.9659 24.6318 26.3892 21.7452C24.4869 20.2136 22.4661 18.8379 20.3463 17.6313L20.3464 23.1326Z" fill="#FBB03B"/>
<path d="M42.2938 10.6616C42.4698 11.2846 42.6876 12.4506 42.1583 13.6331C41.0601 16.0869 37.6098 16.6821 35.5979 16.5956C35.2978 16.5827 30.8123 16.3323 29.678 13.4526C29.2905 12.4684 29.4322 11.5272 29.5838 10.9492C30.5114 11.6528 31.5289 12.2269 32.6088 12.6559C33.6649 13.0761 34.7694 13.3598 35.896 13.5005C37.0507 13.3811 38.1809 13.0867 39.2484 12.6273C40.3649 12.1475 41.3941 11.4831 42.2938 10.6616Z" fill="#F8A61E"/>
<path d="M34.9869 0L25.3393 5.94763C25.1932 6.22027 25.1375 6.53294 25.1803 6.83983C25.216 7.07301 25.3069 7.29406 25.4454 7.48421L35.8381 11.3593C36.1732 11.4957 36.536 11.5481 36.8956 11.512C37.2551 11.4758 37.6006 11.3523 37.9024 11.1519C38.6144 10.6987 41.7587 8.76574 46.0657 6.09635C45.958 6.58413 45.9223 7.08525 45.9597 7.58354C46.0071 8.20671 46.1754 8.87939 46.2777 8.87217C46.4115 8.86274 46.4337 7.69175 46.4367 7.53393C46.4497 6.85149 46.3867 6.59611 46.4897 6.09657C46.5467 5.82259 46.6356 5.5564 46.7548 5.30359L38.7505 5.74964C38.7681 5.53507 38.7858 5.3205 38.8034 5.10593L45.8677 4.63469C46.2785 4.68774 46.5757 4.54591 46.5959 4.41195C46.615 4.28642 46.4009 4.09897 46.0659 4.01551L34.9869 0Z" fill="#F8A61E"/>
</g>
<defs>
<clipPath id="clip0_98_349">
<rect width="105" height="84" fill="white"/>
</clipPath>
</defs>
</svg>
